<?xml version="1.0" encoding="UTF-8"?>
<svg id="Layer_1" data-name="Layer 1" xmlns="http://www.w3.org/2000/svg" viewBox="0 0 607.22 930.01">
  <path d="M2.27,0c80.61,112.08,85.91,252.66,76.55,324.65C62.38,451.2-.89,529.11,0,677.83c.18,29.88,2.9,59.29,9.47,90.14,15.71,73.78,47.6,128.47,70.34,161.23-14.31-62.98-26.22-159.39,8.4-262.44,30.68-91.35,75.28-120.49,99.89-203.51,18.01-60.75,26.99-155.94-30.47-293.83,9.33,4.47,21.74,10.72,35.96,18.82,112.18,63.93,317.17,231.77,288.73,412.91-23.67,150.79-198.33,242.24-271.56,280.58-45.94,24.05-86.69,38.28-114.61,46.65,44.53,3.46,115.5,3.55,196.63-21.52,48.66-15.04,182.79-58.79,259.35-191.45,10.28-17.82,73.98-123.93,49.55-255.72C546.7,162.96,118.95,34.13,45.59,12.03,27.51,6.59,12.42,2.58,2.27,0Z" fill="#fde8ce"/>
</svg>