<?xml version="1.0" encoding="UTF-8"?>
<svg id="Layer_1" xmlns="http://www.w3.org/2000/svg" xmlns:xlink="http://www.w3.org/1999/xlink" version="1.1" viewBox="0 0 1920 498.6">
  <!-- Generator: Adobe Illustrator 29.3.1, SVG Export Plug-In . SVG Version: 2.1.0 Build 151)  -->
  <defs>
    <style>
      .st0 {
        fill: none;
      }

      .st1 {
        fill: #fde8ce;
      }

      .st2 {
        clip-path: url(#clippath-1);
      }

      .st3 {
        clip-path: url(#clippath);
      }
    </style>
    <clipPath id="clippath">
      <rect class="st0" x="814.7" y="-22" width="1105.3" height="529.3"/>
    </clipPath>
    <clipPath id="clippath-1">
      <rect class="st0" y="-22" width="770.7" height="529.3"/>
    </clipPath>
  </defs>
  <g class="st3">
    <g>
      <path class="st1" d="M822.2,376.9v-113.7c4.8,2.2,12.2,5.2,22,9.3,9.8,4,21.6,8.1,35.5,12.3,13.8,4.2,29.4,7.7,46.6,10.7,17.2,3,35.6,4.4,55.3,4.4s6.7-.2,11.3-.6c4.6-.4,9.1-1.3,13.7-2.8,4.6-1.5,8.5-3.7,11.7-6.7,3.2-3,4.9-7,4.9-12.1s-4.3-11.8-12.9-15.1c-8.6-3.4-19.5-6.8-32.6-10.3-11.8-3.2-24.6-7-38.3-11.3-13.7-4.3-27.3-9.9-40.7-16.7-13.4-6.9-25.7-15.5-36.7-25.8-11-10.3-19.9-23-26.6-38.1-6.7-15.1-10.1-33.2-10.1-54.4s3.7-36.4,11.1-48.8c7.4-12.4,17.1-21.6,29.2-27.8,12.1-6.2,25.1-10.4,39.1-12.5,14-2.2,27.6-3.2,40.7-3.2s9.5.1,16.5.4c7,.3,14.5.7,22.4,1.2,7.9.5,15.3,1.1,22,1.6,6.7.5,11.8,1.1,15.3,1.6v116.1c-5.4-5.6-12.4-11.4-21-17.3-8.6-5.9-19-11-31.3-15.1-12.2-4.2-26.5-6.3-42.9-6.3s-26.8,2.8-39.1,8.3c-12.4,5.5-22.5,12.4-30.4,20.8-7.9,8.3-11.9,16.7-11.9,25s3.2,16.1,9.7,19.2c6.4,3.1,13,4.6,19.8,4.6s20.3-.7,32.7-2.2c12.4-1.5,25-2.2,37.9-2.2s22.8,1.2,33.6,3.6c10.9,2.4,20.7,6.8,29.4,13.3,8.7,6.4,15.7,15.9,20.8,28.4,5.1,12.5,7.7,28.8,7.7,49s-3.7,40.7-11.1,55.9c-7.4,15.2-17.1,27.3-29,36.5-12,9.1-24.8,15.7-38.5,19.8s-26.9,6-39.5,6-17.6-.2-29.3-.6c-11.7-.4-23.4-.9-35.3-1.6-11.8-.7-22.3-1.5-31.4-2.6Z"/>
      <path class="st1" d="M1226.6,176.5c-9.9,0-21.6,1.8-35.1,5.4-13.4,3.6-27.2,8.8-41.3,15.5-14.1,6.7-27.2,14.9-39.3,24.6-12.1,9.7-21.9,20.6-29.4,32.6-7.5,12.1-11.3,25.3-11.3,39.5s3.4,13.3,10.1,16.5c6.7,3.2,15.2,4.8,25.4,4.8s23.2-1.2,36.5-3.6c13.3-2.4,26.3-5.3,39.1-8.7,12.8-3.4,23.8-6.6,33-9.7,9.3-3.1,15.4-5.4,18.4-7.1v88.7c-9.1,2.1-18.4,3.7-27.8,4.8-9.4,1.1-18.8,1.6-28.2,1.6-13.7,0-28-2.3-42.7-6.9-14.8-4.6-28.6-12-41.3-22.4-12.8-10.3-23.2-24.3-31.3-41.7-8.1-17.5-12.1-39.1-12.1-64.9s3.4-48.1,10.3-66.1c6.9-18,16.3-32.6,28.2-43.8,12-11.2,25.7-19.2,41.3-24.2,15.6-5,32-7.5,49.2-7.5s16.1.5,24.2,1.4c8.1.9,16.1,2.3,24.2,4.2v66.5Z"/>
      <path class="st1" d="M1239.5,38.2c0-11.3,4.6-20.4,13.7-27.4,9.1-7,21.2-10.5,36.3-10.5s27.1,3.5,36.1,10.5c9,7,13.5,16.1,13.5,27.4s-4.5,20.9-13.5,28-21,10.7-36.1,10.7-27.1-3.6-36.3-10.7c-9.1-7.1-13.7-16.5-13.7-28ZM1244.7,376.9c8.6-21.8,15.4-43.9,20.4-66.3,5-22.4,7.5-46.2,7.5-71.2s-2.1-44.3-6.3-66.1c-4.2-21.8-10.7-42.9-19.5-63.3h85.1c-8.1,20.4-14.4,42.3-18.9,65.5-4.6,23.3-6.9,47.2-6.9,72s2,44.3,6,66.1c4,21.8,10.6,42.9,19.8,63.3h-87.1Z"/>
      <path class="st1" d="M1474.9,381.7c-21.5,0-40.3-5.2-56.5-15.5-16.1-10.3-29.5-24.3-40.1-41.7-10.6-17.5-18.6-37.2-24-59.1-5.4-21.9-8.1-44.4-8.1-67.5s2.7-45.6,8.1-67.5c5.4-21.9,13.4-41.7,24-59.3,10.6-17.6,24-31.6,40.1-41.9,16.1-10.3,35-15.5,56.5-15.5s40.3,5.2,56.4,15.5c16.1,10.3,29.6,24.3,40.3,41.9,10.8,17.6,18.8,37.3,24.2,59.3,5.4,21.9,8.1,44.4,8.1,67.5s-2.7,45.6-8.1,67.5c-5.4,21.9-13.4,41.6-24.2,59.1-10.8,17.5-24.2,31.4-40.3,41.7-16.1,10.3-34.9,15.5-56.4,15.5ZM1550.3,97.5c-8.9,0-19.4,2.6-31.6,7.9-12.2,5.2-25.1,12.4-38.5,21.4-13.4,9-26.5,19.2-39.3,30.6-12.8,11.4-24.4,23.5-34.9,36.3-10.5,12.8-18.9,25.5-25.2,38.1-6.3,12.6-9.5,24.5-9.5,35.5s2.6,17.5,7.9,22.6c5.3,5.1,12,7.6,20.4,7.6s19.4-2.6,31.6-7.9c12.2-5.3,25.1-12.4,38.5-21.4,13.4-9,26.6-19.2,39.5-30.6,12.9-11.4,24.6-23.5,35.1-36.3,10.5-12.8,18.9-25.4,25.2-37.9,6.3-12.5,9.5-24.3,9.5-35.3s-2.7-17.9-8.1-23c-5.4-5.1-12.2-7.7-20.6-7.7Z"/>
      <path class="st1" d="M1608.7,376.9c8.6-28,15.3-58.3,20.1-90.9,4.8-32.7,7.3-66.7,7.3-102.2s-2.1-62.8-6.3-93.3-10.8-58.8-20-84.9h86.3c-8.1,26.9-14.4,56.9-19.1,90.1-4.7,33.2-7.1,67.5-7.1,103s2.1,62.8,6.3,93.3c4.2,30.5,10.8,58.8,20,84.9h-87.5Z"/>
      <path class="st1" d="M1834.9,110h78.2c-8.1,26.6-14.1,56.6-18.1,89.9-4,33.3-6,68.1-6,104.4s1.9,71.4,5.8,105.4c3.9,34,9.6,63.6,17.1,88.9h-77.8l16.5-239.9h-6.5c-2.4,13.4-6.7,27.4-12.9,41.7-6.2,14.4-13.7,27.7-22.6,39.9-8.9,12.2-18.6,22.2-29.2,29.8-10.6,7.7-21.6,11.5-32.9,11.5s-22.5-2.9-27.2-8.7c-4.7-5.8-7-13.9-7-24.4s.5-12.5,1.4-19.7c.9-7.3,1.9-14.8,3-22.6,1.3-9.9,2.7-20.3,4-31,1.3-10.8,2-21.9,2-33.5,0-23.6-2.4-46.7-7.3-69.1-4.8-22.4-10.2-43.3-16.1-62.7h108.5c5.9,14.2,8.9,28.2,8.9,41.9s-3.3,29.6-9.9,42.9c-6.6,13.3-14.6,25.5-24,36.7-9.4,11.2-18.5,21.3-27.4,30.4-7.5,8.1-14.1,15.4-19.6,22.2-5.5,6.7-8.3,13.2-8.3,19.4s1.1,7.3,3.4,9.1c2.3,1.7,5.2,2.6,8.7,2.6,6.2,0,13.8-1.6,23-4.8,9.1-3.2,18.8-8.1,29-14.7,10.2-6.6,19.8-15,28.6-25.4,8.9-10.3,16.1-22.6,21.8-36.7,5.7-14.1,8.5-30.3,8.5-48.6s-1.2-24-3.6-36.5c-2.4-12.5-6.5-25.3-12.1-38.5Z"/>
    </g>
  </g>
  <g class="st2">
    <g>
      <g>
        <path class="st1" d="M3.2,375.4c8.5-27.7,15.2-57,20-87.8,4.8-30.8,7.2-63,7.2-96.6s-2.1-59.7-6.2-88.8c-4.1-29-10.6-56.4-19.3-82.1l-1.9-5.5,5.7-1.1c7.2-1.4,17.7-2.5,31.7-3.5,13.8-.9,29.9-1.4,48.3-1.4s37.8,1.3,56.1,3.9c18.6,2.6,35.5,7.5,50.6,14.5,15.5,7.2,27.8,17.4,37.1,30.5,9.3,13.2,14,30.2,14,50.9s-4.3,36.3-12.9,52.4c-8.6,16.1-21.5,29.5-38.7,40-17.1,10.5-38.2,17-63.4,19.5l-.5-5h5c0,6.3,2.2,12,6.6,17.1,4.8,5.6,11.2,10.3,19,14.3,8.1,4.1,16.7,7.2,25.8,9.3,9.2,2.1,17.7,3.1,25.7,3.1s9.7-.2,14.3-.6c4.7-.4,9.1-.7,13.2-1l5.4-.4v123.4l-3.3,1.2c-5.4,2-10.6,3.4-15.5,4.1-4.8.7-9.5,1.1-14,1.1-14.9,0-27.3-4-37.4-12-9.7-7.7-17.8-17.5-24.3-29.3-6.2-11.4-12.2-23.3-17.9-35.8-5.6-12.5-11.5-24.5-17.6-36-5.9-11-12.9-19.9-21-26.7-7.7-6.5-17.2-9.7-28.6-9.7v-5h5c0,16.8.9,33.4,2.6,50.1,1.7,16.4,5.1,32.4,10.3,47.9,5.1,15.3,12.7,29.9,22.9,43.8l5.9,8H1.2l2-6.5ZM12.9,378.4l-4.8-1.5v-5h95.1v5l-4.1,3c-10.8-14.7-18.9-30.2-24.3-46.6-5.4-16.2-8.9-32.9-10.7-50-1.8-17-2.6-34-2.6-51.1v-5h5c13.9,0,25.6,4,35.1,12.1,9.1,7.7,16.9,17.6,23.4,29.7,6.2,11.7,12.2,23.8,17.9,36.6,5.6,12.3,11.5,24,17.6,35.1,5.9,10.7,13.1,19.5,21.7,26.3,8.2,6.5,18.6,9.8,31.1,9.8s8.2-.3,12.6-1c4.2-.6,8.7-1.8,13.5-3.6l1.7,4.7h-5v-114.5h5l.3,5c-4,.3-8.3.6-13,1-4.8.4-9.9.6-15.1.6-8.7,0-18-1.1-27.9-3.3-10-2.2-19.3-5.6-28.2-10.1-9.1-4.6-16.4-10.2-22.1-16.7-6.1-7-9.1-14.9-9.1-23.7v-4.6l4.5-.4c23.7-2.3,43.4-8.3,59.1-18,15.6-9.6,27.3-21.7,35.1-36.2,7.8-14.6,11.7-30.4,11.7-47.6s-4.1-33.6-12.2-45.1c-8.2-11.6-19.3-20.7-33.1-27.2-14.2-6.6-30.1-11.2-47.8-13.7-17.9-2.5-36.2-3.8-54.7-3.8s-34,.5-47.6,1.4c-13.5.9-23.6,2-30.4,3.3l-.9-4.9,4.8-1.6c9,26.4,15.6,54.4,19.8,84,4.2,29.5,6.3,59.6,6.3,90.2s-2.4,66.8-7.3,98.1c-4.9,31.3-11.6,61-20.3,89.2ZM188.3,102.9c-5.4,0-12.2,1.9-20.2,5.8-8.4,4-17.3,9.4-26.6,16.3-9.3,6.8-17.9,14.4-25.9,22.8-7.9,8.3-14.3,16.7-19.3,25.1-4.6,7.9-7,15.4-7,22.3s1,7.1,2.9,9.5c1.7,2.1,4.3,3.2,7.8,3.2,5.4,0,12.1-2,20.2-5.9,8.5-4.2,17.3-9.7,26.4-16.5,9.2-6.8,17.8-14.4,25.8-22.8,7.9-8.3,14.3-16.7,19.2-25.2,4.7-8.1,7-15.4,7-22.1s-.9-7.7-2.6-9.7c-1.6-1.8-4.1-2.6-7.7-2.6ZM188.3,92.9c6.6,0,11.7,2,15.3,6,3.4,3.8,5.1,9.3,5.1,16.3s-2.8,17.5-8.3,27.1c-5.3,9.2-12.2,18.3-20.7,27.2-8.4,8.8-17.4,16.8-27,24-9.7,7.2-19,13-28,17.4-9.4,4.6-17.6,7-24.6,7s-11.9-2.3-15.6-6.9c-3.4-4.3-5.1-9.6-5.1-15.8s2.8-17.8,8.3-27.3c5.3-9.1,12.2-18.1,20.7-26.9,8.4-8.8,17.5-16.8,27.3-24,9.8-7.2,19.2-12.9,28.2-17.2,9.4-4.5,17.6-6.7,24.5-6.7Z"/>
        <path class="st1" d="M253.2,375.4c7.7-25.8,14-54.6,18.8-86.4,4.8-31.7,7.2-64.4,7.2-98s-2.1-58.5-6.2-87.6c-4.1-29-10.6-56.8-19.3-83.4l-1.8-5.6,5.8-.9c11.7-1.9,23.3-3.3,34.9-4.3,11.6-1,20.9-1.4,28-1.4,29.7,0,51,5.4,63.9,16.1,13.2,11,19.8,25,19.8,42.2s-2.7,24.5-8.2,38.7c-5.4,13.9-12.7,28.2-22,42.8-9.2,14.5-19.8,29.2-31.8,43.8l-3.9-3.2-2.3-4.5c6.4-3.2,13.5-5.4,21.3-6.5,7.5-1.1,15.1-1.7,22.9-1.7s19.1.4,27.9,1.2c8.4.8,16.2,1.2,23.3,1.2s14.9-1,20.7-3.1c5.1-1.8,9.1-5.5,12-11.1,3.1-6,4.7-15,4.7-27.1,0-19.3-3.4-39.2-10.2-59.5-6.8-20.4-16.2-38.9-28-55.8l-5.6-7.9h109.6l-2,6.5c-8,26.1-14.2,54.8-18.8,86.1-4.5,31.3-6.8,63.7-6.8,97s2.1,60.3,6.2,89.6c4.1,29.3,10.6,56.8,19.3,82.5l2.3,6.7h-132.8l-1.5-2.4c-5.9-9.8-10.1-19.3-12.6-28.5-2.5-9.2-3.8-18.2-3.8-26.9,0-13.8,2.6-27.2,7.8-40.2,5.1-12.7,11.8-25.2,20.1-37.4,8.1-12.1,16.8-24,26-35.9l4,3.1-2.7,4.2c-4.2-2.7-10.5-5.5-19-8.3-8.7-2.9-18.2-5.3-28.6-7.3-10.3-2-20.4-2.9-30.3-2.9-15.1,0-26.4,5.5-33.7,16.5-7.8,11.7-11.7,26.1-11.7,43.4s3.7,38.8,11,59.2c7.4,20.5,16.8,39.1,28.4,55.7l5.5,7.9h-109.6l1.9-6.5ZM262.8,378.3l-4.8-1.4v-5h93.1v5l-4.1,2.9c-12.1-17.3-22-36.6-29.6-58-7.7-21.5-11.6-42.4-11.6-62.6s4.4-35.6,13.3-49c9.3-14,23.4-21,42.1-21s21.3,1,32.2,3.1c10.8,2.1,20.8,4.6,29.9,7.6,9.3,3.1,16.4,6.2,21.3,9.4l4.6,3-3.3,4.3c-9.1,11.7-17.6,23.5-25.6,35.4-7.9,11.7-14.2,23.5-19.1,35.6-4.7,11.8-7.1,23.9-7.1,36.4s1.1,16,3.4,24.3c2.3,8.3,6.2,16.9,11.6,26l-4.3,2.6v-5h123v5l-4.8,1.6c-9-26.4-15.6-54.5-19.8-84.4-4.2-29.8-6.3-60.1-6.3-91s2.3-66.7,6.9-98.5c4.6-31.8,11-61,19.1-87.6l4.8,1.5v5h-93.1v-5l4.1-2.9c12.4,17.6,22.1,37,29.3,58.3,7.2,21.3,10.7,42.2,10.7,62.7s-1.9,24.3-5.8,31.8c-4.1,7.9-9.9,13.2-17.5,15.9-6.9,2.5-14.9,3.7-24.1,3.7s-15.5-.4-24.3-1.2c-8.4-.8-17.4-1.2-26.9-1.2s-14.4.5-21.4,1.6c-6.7,1-12.8,2.9-18.2,5.6l-6.2-7.7c11.7-14.4,22.1-28.6,31.1-42.9,9-14.1,16-27.8,21.1-41,5-13,7.5-24.7,7.5-35.1s-5.4-25.5-16.1-34.4c-11-9.2-30.2-13.8-57.5-13.8s-15.9.5-27.2,1.4c-11.3.9-22.7,2.3-34.1,4.2l-.8-5,4.8-1.6c9,27.2,15.5,55.5,19.8,85.1,4.2,29.5,6.3,59.2,6.3,89s-2.4,67.3-7.3,99.5c-4.9,32.2-11.2,61.5-19.1,87.8Z"/>
      </g>
      <path class="st1" d="M539.2,376.9v-121.4l7.1,3.2c4.8,2.1,12.1,5.2,21.8,9.2,9.7,4,21.3,8,35,12.1,13.6,4.1,29,7.6,46,10.5,16.9,2.9,35,4.4,54.4,4.4s6.4-.2,10.8-.6c4.2-.4,8.4-1.2,12.6-2.6,3.9-1.3,7.2-3.1,9.8-5.6,2.1-2,3.2-4.8,3.2-8.4s-3.2-7.9-9.7-10.4c-8.4-3.3-19.1-6.7-32.1-10.1-11.9-3.2-24.7-7-38.5-11.3-14-4.4-27.8-10.1-41.5-17.1-13.9-7.1-26.5-15.9-37.8-26.6-11.5-10.8-20.8-24-27.8-39.7-7-15.7-10.5-34.5-10.5-56.5s3.9-38.2,11.8-51.4c7.9-13.2,18.3-23.1,31.3-29.7,12.6-6.4,26.1-10.8,40.6-13,14.2-2.2,28.1-3.3,41.5-3.3s9.7.1,16.7.4c7,.3,14.5.7,22.5,1.2,7.9.5,15.3,1.1,22,1.6,6.8.6,12.1,1.1,15.7,1.7l4.3.7v133l-8.7-9.1c-5.1-5.4-11.9-10.9-20.2-16.7-8.2-5.7-18.2-10.5-30-14.5-11.7-4-25.5-6-41.3-6s-25.3,2.6-37.1,7.8c-11.8,5.2-21.4,11.8-28.8,19.6-7,7.4-10.5,14.5-10.5,21.5s2.3,12.4,6.8,14.6c5.8,2.8,11.6,4.1,17.6,4.1,9.2,0,19.9-.7,32.1-2.2,12.6-1.5,25.4-2.3,38.5-2.3s23.5,1.3,34.8,3.8c11.6,2.6,22,7.3,31.3,14.2,9.5,7,17,17.2,22.4,30.6,5.4,13.1,8,30.1,8,50.9s-3.9,42.2-11.6,58c-7.7,15.9-17.9,28.7-30.5,38.3-12.5,9.5-25.8,16.4-40.1,20.6-14.2,4.2-27.8,6.3-40.9,6.3s-17.7-.2-29.4-.6c-11.7-.4-23.5-.9-35.4-1.6-11.9-.7-22.5-1.6-31.8-2.6l-4.5-.5v-4.5ZM549.3,376.9h-5l.6-5c9,1.1,19.4,1.9,31.1,2.6,11.8.7,23.5,1.2,35.2,1.6,11.6.4,21.3.6,29.1.6,12.2,0,24.8-1.9,38.1-5.8,13.1-3.9,25.4-10.2,36.9-18.9,11.3-8.7,20.5-20.2,27.6-34.7,7.1-14.5,10.6-32.4,10.6-53.6s-2.4-35.2-7.3-47.1c-4.8-11.6-11.1-20.4-19.1-26.3-8.2-6-17.3-10.2-27.5-12.4-10.5-2.3-21.4-3.5-32.6-3.5s-25.1.7-37.3,2.2c-12.6,1.5-23.6,2.3-33.3,2.3s-14.8-1.7-21.9-5.1c-8.4-4-12.5-11.9-12.5-23.7s4.4-19.2,13.3-28.5c8.4-8.8,19.1-16.1,32-21.9,13-5.8,26.7-8.7,41.2-8.7s31.8,2.2,44.6,6.5c12.7,4.3,23.5,9.6,32.5,15.7,8.9,6.1,16.1,12.1,21.8,18l-3.6,3.5h-5V18.5h5l-.8,5c-3.4-.5-8.4-1-15-1.6-6.7-.5-14-1.1-21.9-1.6-7.9-.5-15.3-.9-22.2-1.2-6.9-.3-12.4-.4-16.3-.4-12.9,0-26.2,1.1-40,3.2-13.4,2.1-26,6.1-37.6,12-11.2,5.7-20.3,14.4-27.2,25.9-6.9,11.6-10.4,27-10.4,46.2s3.2,38,9.6,52.4c6.4,14.4,14.9,26.6,25.5,36.5,10.7,10,22.5,18.3,35.5,25,13.2,6.7,26.5,12.2,39.9,16.4,13.6,4.3,26.3,8,38.1,11.2,13.3,3.5,24.4,7,33.2,10.5,10.7,4.2,16.1,10.8,16.1,19.8s-2.2,11.9-6.5,15.8c-3.8,3.5-8.3,6-13.5,7.7-4.9,1.6-9.9,2.6-14.8,3-4.7.4-8.6.6-11.7.6-19.9,0-38.6-1.5-56.1-4.5-17.4-3-33.1-6.6-47.2-10.8-14-4.2-26-8.4-35.9-12.5-9.9-4-17.2-7.2-22.1-9.3l2-4.6h5v113.7Z"/>
    </g>
  </g>
</svg>